<mxfile host="app.diagrams.net" modified="2023-10-05T22:38:59.652Z" agent="Mozilla/5.0 (Windows NT 10.0; Win64; x64) AppleWebKit/537.36 (KHTML, like Gecko) Chrome/117.0.0.0 Safari/537.36" etag="fs6g6DsQc5LgqatmeFnp" version="22.0.3" type="github">
  <diagram name="Page-1" id="88xkAEciGBHpEoHT8a77">
    <mxGraphModel dx="1114" dy="578" grid="1" gridSize="10" guides="1" tooltips="1" connect="1" arrows="1" fold="1" page="1" pageScale="1" pageWidth="850" pageHeight="1100" math="0" shadow="0">
      <root>
        <mxCell id="0" />
        <mxCell id="1" parent="0" />
        <mxCell id="C2OVpttP7pJ9jfqpv7On-1" value="" style="strokeWidth=1;shadow=0;dashed=0;align=center;html=1;shape=mxgraph.mockup.containers.browserWindow;rSize=0;strokeColor=#666666;strokeColor2=#008cff;strokeColor3=#c4c4c4;mainText=,;recursiveResize=0;" vertex="1" parent="1">
          <mxGeometry x="20" y="100" width="770" height="680" as="geometry" />
        </mxCell>
        <mxCell id="C2OVpttP7pJ9jfqpv7On-2" value="home" style="strokeWidth=1;shadow=0;dashed=0;align=center;html=1;shape=mxgraph.mockup.containers.anchor;fontSize=17;fontColor=#666666;align=left;whiteSpace=wrap;" vertex="1" parent="C2OVpttP7pJ9jfqpv7On-1">
          <mxGeometry x="60" y="12" width="110" height="26" as="geometry" />
        </mxCell>
        <mxCell id="C2OVpttP7pJ9jfqpv7On-3" value="https://www.guizegame.com/home" style="strokeWidth=1;shadow=0;dashed=0;align=center;html=1;shape=mxgraph.mockup.containers.anchor;rSize=0;fontSize=17;fontColor=#666666;align=left;" vertex="1" parent="C2OVpttP7pJ9jfqpv7On-1">
          <mxGeometry x="130" y="60" width="250" height="26" as="geometry" />
        </mxCell>
        <mxCell id="C2OVpttP7pJ9jfqpv7On-10" value="" style="strokeWidth=1;shadow=0;dashed=0;align=center;html=1;shape=mxgraph.mockup.text.rrect;rSize=0;strokeColor=#666666;" vertex="1" parent="C2OVpttP7pJ9jfqpv7On-1">
          <mxGeometry x="260" y="142.5" width="500" height="25" as="geometry" />
        </mxCell>
        <mxCell id="C2OVpttP7pJ9jfqpv7On-11" value="score" style="strokeColor=inherit;fillColor=inherit;gradientColor=inherit;strokeWidth=1;shadow=0;dashed=0;align=center;html=1;shape=mxgraph.mockup.text.rrect;rSize=0;fontSize=17;fontColor=#0000ff;whiteSpace=wrap;" vertex="1" parent="C2OVpttP7pJ9jfqpv7On-10">
          <mxGeometry x="125" width="125" height="25" as="geometry" />
        </mxCell>
        <mxCell id="C2OVpttP7pJ9jfqpv7On-12" value="login" style="strokeColor=inherit;fillColor=inherit;gradientColor=inherit;strokeWidth=1;shadow=0;dashed=0;align=center;html=1;shape=mxgraph.mockup.text.rrect;rSize=0;fontSize=17;fontColor=#0000ff;whiteSpace=wrap;" vertex="1" parent="C2OVpttP7pJ9jfqpv7On-10">
          <mxGeometry x="250" width="125" height="25" as="geometry" />
        </mxCell>
        <mxCell id="C2OVpttP7pJ9jfqpv7On-13" value="contact" style="strokeColor=inherit;fillColor=inherit;gradientColor=inherit;strokeWidth=1;shadow=0;dashed=0;align=center;html=1;shape=mxgraph.mockup.text.rrect;rSize=0;fontSize=17;fontColor=#0000ff;whiteSpace=wrap;" vertex="1" parent="C2OVpttP7pJ9jfqpv7On-10">
          <mxGeometry x="375" width="125" height="25" as="geometry" />
        </mxCell>
        <mxCell id="C2OVpttP7pJ9jfqpv7On-14" value="home" style="strokeWidth=1;shadow=0;dashed=0;align=center;html=1;shape=mxgraph.mockup.text.rrect;rSize=0;fontSize=17;fontColor=#ffffff;fillColor=#008cff;strokeColor=#008cff;whiteSpace=wrap;" vertex="1" parent="C2OVpttP7pJ9jfqpv7On-10">
          <mxGeometry width="125" height="25" as="geometry" />
        </mxCell>
        <mxCell id="C2OVpttP7pJ9jfqpv7On-15" value="let&#39;s play" style="strokeWidth=1;shadow=0;dashed=0;align=center;html=1;shape=mxgraph.mockup.buttons.button;strokeColor=#666666;fontColor=#ffffff;mainText=;buttonStyle=round;fontSize=17;fontStyle=1;fillColor=#008cff;whiteSpace=wrap;" vertex="1" parent="C2OVpttP7pJ9jfqpv7On-1">
          <mxGeometry x="310" y="390" width="150" height="50" as="geometry" />
        </mxCell>
        <mxCell id="C2OVpttP7pJ9jfqpv7On-16" value="" style="verticalLabelPosition=bottom;shadow=0;dashed=0;align=center;html=1;verticalAlign=top;strokeWidth=1;shape=mxgraph.mockup.graphics.simpleIcon;strokeColor=#999999;" vertex="1" parent="C2OVpttP7pJ9jfqpv7On-1">
          <mxGeometry x="40" y="130" width="90" height="50" as="geometry" />
        </mxCell>
        <mxCell id="C2OVpttP7pJ9jfqpv7On-17" value="" style="strokeWidth=1;shadow=0;dashed=0;align=center;html=1;shape=mxgraph.mockup.containers.browserWindow;rSize=0;strokeColor=#666666;strokeColor2=#008cff;strokeColor3=#c4c4c4;mainText=,;recursiveResize=0;" vertex="1" parent="1">
          <mxGeometry x="20" y="830" width="770" height="690" as="geometry" />
        </mxCell>
        <mxCell id="C2OVpttP7pJ9jfqpv7On-18" value="home" style="strokeWidth=1;shadow=0;dashed=0;align=center;html=1;shape=mxgraph.mockup.containers.anchor;fontSize=17;fontColor=#666666;align=left;whiteSpace=wrap;" vertex="1" parent="C2OVpttP7pJ9jfqpv7On-17">
          <mxGeometry x="60" y="12" width="110" height="26" as="geometry" />
        </mxCell>
        <mxCell id="C2OVpttP7pJ9jfqpv7On-19" value="https://www.quizegame.com/home" style="strokeWidth=1;shadow=0;dashed=0;align=center;html=1;shape=mxgraph.mockup.containers.anchor;rSize=0;fontSize=17;fontColor=#666666;align=left;" vertex="1" parent="C2OVpttP7pJ9jfqpv7On-17">
          <mxGeometry x="130" y="60" width="250" height="26" as="geometry" />
        </mxCell>
        <mxCell id="C2OVpttP7pJ9jfqpv7On-20" value="" style="strokeWidth=1;shadow=0;dashed=0;align=center;html=1;shape=mxgraph.mockup.text.rrect;rSize=0;strokeColor=#666666;" vertex="1" parent="C2OVpttP7pJ9jfqpv7On-17">
          <mxGeometry x="260" y="142.5" width="500" height="25" as="geometry" />
        </mxCell>
        <mxCell id="C2OVpttP7pJ9jfqpv7On-21" value="score" style="strokeColor=inherit;fillColor=inherit;gradientColor=inherit;strokeWidth=1;shadow=0;dashed=0;align=center;html=1;shape=mxgraph.mockup.text.rrect;rSize=0;fontSize=17;fontColor=#0000ff;whiteSpace=wrap;" vertex="1" parent="C2OVpttP7pJ9jfqpv7On-20">
          <mxGeometry x="125" width="125" height="25" as="geometry" />
        </mxCell>
        <mxCell id="C2OVpttP7pJ9jfqpv7On-22" value="login" style="strokeColor=inherit;fillColor=inherit;gradientColor=inherit;strokeWidth=1;shadow=0;dashed=0;align=center;html=1;shape=mxgraph.mockup.text.rrect;rSize=0;fontSize=17;fontColor=#0000ff;whiteSpace=wrap;" vertex="1" parent="C2OVpttP7pJ9jfqpv7On-20">
          <mxGeometry x="250" width="125" height="25" as="geometry" />
        </mxCell>
        <mxCell id="C2OVpttP7pJ9jfqpv7On-23" value="contact" style="strokeColor=inherit;fillColor=inherit;gradientColor=inherit;strokeWidth=1;shadow=0;dashed=0;align=center;html=1;shape=mxgraph.mockup.text.rrect;rSize=0;fontSize=17;fontColor=#0000ff;whiteSpace=wrap;" vertex="1" parent="C2OVpttP7pJ9jfqpv7On-20">
          <mxGeometry x="375" width="125" height="25" as="geometry" />
        </mxCell>
        <mxCell id="C2OVpttP7pJ9jfqpv7On-24" value="home" style="strokeWidth=1;shadow=0;dashed=0;align=center;html=1;shape=mxgraph.mockup.text.rrect;rSize=0;fontSize=17;fontColor=#ffffff;fillColor=#008cff;strokeColor=#008cff;whiteSpace=wrap;" vertex="1" parent="C2OVpttP7pJ9jfqpv7On-20">
          <mxGeometry width="125" height="25" as="geometry" />
        </mxCell>
        <mxCell id="C2OVpttP7pJ9jfqpv7On-26" value="" style="verticalLabelPosition=bottom;shadow=0;dashed=0;align=center;html=1;verticalAlign=top;strokeWidth=1;shape=mxgraph.mockup.graphics.simpleIcon;strokeColor=#999999;" vertex="1" parent="C2OVpttP7pJ9jfqpv7On-17">
          <mxGeometry x="40" y="130" width="90" height="50" as="geometry" />
        </mxCell>
        <mxCell id="C2OVpttP7pJ9jfqpv7On-33" value="" style="strokeWidth=1;shadow=0;dashed=0;align=center;html=1;shape=mxgraph.mockup.containers.browserWindow;rSize=0;strokeColor=#666666;strokeColor2=#008cff;strokeColor3=#c4c4c4;mainText=,;recursiveResize=0;" vertex="1" parent="1">
          <mxGeometry x="40" y="1590" width="770" height="690" as="geometry" />
        </mxCell>
        <mxCell id="C2OVpttP7pJ9jfqpv7On-34" value="home" style="strokeWidth=1;shadow=0;dashed=0;align=center;html=1;shape=mxgraph.mockup.containers.anchor;fontSize=17;fontColor=#666666;align=left;whiteSpace=wrap;" vertex="1" parent="C2OVpttP7pJ9jfqpv7On-33">
          <mxGeometry x="60" y="12" width="110" height="26" as="geometry" />
        </mxCell>
        <mxCell id="C2OVpttP7pJ9jfqpv7On-35" value="https://www.quizegame.com/catagory" style="strokeWidth=1;shadow=0;dashed=0;align=center;html=1;shape=mxgraph.mockup.containers.anchor;rSize=0;fontSize=17;fontColor=#666666;align=left;" vertex="1" parent="C2OVpttP7pJ9jfqpv7On-33">
          <mxGeometry x="130" y="60" width="250" height="26" as="geometry" />
        </mxCell>
        <mxCell id="C2OVpttP7pJ9jfqpv7On-36" value="" style="strokeWidth=1;shadow=0;dashed=0;align=center;html=1;shape=mxgraph.mockup.text.rrect;rSize=0;strokeColor=#666666;" vertex="1" parent="C2OVpttP7pJ9jfqpv7On-33">
          <mxGeometry x="260" y="142.5" width="500" height="25" as="geometry" />
        </mxCell>
        <mxCell id="C2OVpttP7pJ9jfqpv7On-37" value="score" style="strokeColor=inherit;fillColor=inherit;gradientColor=inherit;strokeWidth=1;shadow=0;dashed=0;align=center;html=1;shape=mxgraph.mockup.text.rrect;rSize=0;fontSize=17;fontColor=#0000ff;whiteSpace=wrap;" vertex="1" parent="C2OVpttP7pJ9jfqpv7On-36">
          <mxGeometry x="125" width="125" height="25" as="geometry" />
        </mxCell>
        <mxCell id="C2OVpttP7pJ9jfqpv7On-38" value="login" style="strokeColor=inherit;fillColor=inherit;gradientColor=inherit;strokeWidth=1;shadow=0;dashed=0;align=center;html=1;shape=mxgraph.mockup.text.rrect;rSize=0;fontSize=17;fontColor=#0000ff;whiteSpace=wrap;" vertex="1" parent="C2OVpttP7pJ9jfqpv7On-36">
          <mxGeometry x="250" width="125" height="25" as="geometry" />
        </mxCell>
        <mxCell id="C2OVpttP7pJ9jfqpv7On-39" value="contact" style="strokeColor=inherit;fillColor=inherit;gradientColor=inherit;strokeWidth=1;shadow=0;dashed=0;align=center;html=1;shape=mxgraph.mockup.text.rrect;rSize=0;fontSize=17;fontColor=#0000ff;whiteSpace=wrap;" vertex="1" parent="C2OVpttP7pJ9jfqpv7On-36">
          <mxGeometry x="375" width="125" height="25" as="geometry" />
        </mxCell>
        <mxCell id="C2OVpttP7pJ9jfqpv7On-40" value="home" style="strokeWidth=1;shadow=0;dashed=0;align=center;html=1;shape=mxgraph.mockup.text.rrect;rSize=0;fontSize=17;fontColor=#ffffff;fillColor=#008cff;strokeColor=#008cff;whiteSpace=wrap;" vertex="1" parent="C2OVpttP7pJ9jfqpv7On-36">
          <mxGeometry width="125" height="25" as="geometry" />
        </mxCell>
        <mxCell id="C2OVpttP7pJ9jfqpv7On-41" value="" style="verticalLabelPosition=bottom;shadow=0;dashed=0;align=center;html=1;verticalAlign=top;strokeWidth=1;shape=mxgraph.mockup.graphics.simpleIcon;strokeColor=#999999;" vertex="1" parent="C2OVpttP7pJ9jfqpv7On-33">
          <mxGeometry x="40" y="130" width="90" height="50" as="geometry" />
        </mxCell>
        <mxCell id="C2OVpttP7pJ9jfqpv7On-77" value="" style="strokeWidth=1;shadow=0;dashed=0;align=center;html=1;shape=mxgraph.mockup.containers.browserWindow;rSize=0;strokeColor=#666666;strokeColor2=#008cff;strokeColor3=#c4c4c4;mainText=,;recursiveResize=0;" vertex="1" parent="1">
          <mxGeometry x="10" y="2350" width="770" height="690" as="geometry" />
        </mxCell>
        <mxCell id="C2OVpttP7pJ9jfqpv7On-78" value="home" style="strokeWidth=1;shadow=0;dashed=0;align=center;html=1;shape=mxgraph.mockup.containers.anchor;fontSize=17;fontColor=#666666;align=left;whiteSpace=wrap;" vertex="1" parent="C2OVpttP7pJ9jfqpv7On-77">
          <mxGeometry x="60" y="12" width="110" height="26" as="geometry" />
        </mxCell>
        <mxCell id="C2OVpttP7pJ9jfqpv7On-79" value="https://www.quizegame.com/quize" style="strokeWidth=1;shadow=0;dashed=0;align=center;html=1;shape=mxgraph.mockup.containers.anchor;rSize=0;fontSize=17;fontColor=#666666;align=left;" vertex="1" parent="C2OVpttP7pJ9jfqpv7On-77">
          <mxGeometry x="130" y="60" width="250" height="26" as="geometry" />
        </mxCell>
        <mxCell id="C2OVpttP7pJ9jfqpv7On-80" value="" style="strokeWidth=1;shadow=0;dashed=0;align=center;html=1;shape=mxgraph.mockup.text.rrect;rSize=0;strokeColor=#666666;" vertex="1" parent="C2OVpttP7pJ9jfqpv7On-77">
          <mxGeometry x="260" y="142.5" width="500" height="25" as="geometry" />
        </mxCell>
        <mxCell id="C2OVpttP7pJ9jfqpv7On-81" value="score" style="strokeColor=inherit;fillColor=inherit;gradientColor=inherit;strokeWidth=1;shadow=0;dashed=0;align=center;html=1;shape=mxgraph.mockup.text.rrect;rSize=0;fontSize=17;fontColor=#0000ff;whiteSpace=wrap;" vertex="1" parent="C2OVpttP7pJ9jfqpv7On-80">
          <mxGeometry x="125" width="125" height="25" as="geometry" />
        </mxCell>
        <mxCell id="C2OVpttP7pJ9jfqpv7On-82" value="login" style="strokeColor=inherit;fillColor=inherit;gradientColor=inherit;strokeWidth=1;shadow=0;dashed=0;align=center;html=1;shape=mxgraph.mockup.text.rrect;rSize=0;fontSize=17;fontColor=#0000ff;whiteSpace=wrap;" vertex="1" parent="C2OVpttP7pJ9jfqpv7On-80">
          <mxGeometry x="250" width="125" height="25" as="geometry" />
        </mxCell>
        <mxCell id="C2OVpttP7pJ9jfqpv7On-83" value="contact" style="strokeColor=inherit;fillColor=inherit;gradientColor=inherit;strokeWidth=1;shadow=0;dashed=0;align=center;html=1;shape=mxgraph.mockup.text.rrect;rSize=0;fontSize=17;fontColor=#0000ff;whiteSpace=wrap;" vertex="1" parent="C2OVpttP7pJ9jfqpv7On-80">
          <mxGeometry x="375" width="125" height="25" as="geometry" />
        </mxCell>
        <mxCell id="C2OVpttP7pJ9jfqpv7On-84" value="home" style="strokeWidth=1;shadow=0;dashed=0;align=center;html=1;shape=mxgraph.mockup.text.rrect;rSize=0;fontSize=17;fontColor=#ffffff;fillColor=#008cff;strokeColor=#008cff;whiteSpace=wrap;" vertex="1" parent="C2OVpttP7pJ9jfqpv7On-80">
          <mxGeometry width="125" height="25" as="geometry" />
        </mxCell>
        <mxCell id="C2OVpttP7pJ9jfqpv7On-85" value="" style="verticalLabelPosition=bottom;shadow=0;dashed=0;align=center;html=1;verticalAlign=top;strokeWidth=1;shape=mxgraph.mockup.graphics.simpleIcon;strokeColor=#999999;" vertex="1" parent="C2OVpttP7pJ9jfqpv7On-77">
          <mxGeometry x="40" y="130" width="90" height="50" as="geometry" />
        </mxCell>
        <mxCell id="C2OVpttP7pJ9jfqpv7On-88" value="" style="strokeWidth=1;shadow=0;dashed=0;align=center;html=1;shape=mxgraph.mockup.containers.rrect;rSize=0;strokeColor=#666666;fontColor=#666666;fontSize=17;verticalAlign=top;whiteSpace=wrap;fillColor=#ffffff;spacingTop=32;" vertex="1" parent="C2OVpttP7pJ9jfqpv7On-77">
          <mxGeometry x="120" y="230" width="500" height="410" as="geometry" />
        </mxCell>
        <mxCell id="C2OVpttP7pJ9jfqpv7On-89" value="quize" style="strokeWidth=1;shadow=0;dashed=0;align=center;html=1;shape=mxgraph.mockup.containers.rrect;rSize=0;fontSize=17;fontColor=#666666;strokeColor=#666666;align=left;spacingLeft=8;fillColor=none;resizeWidth=1;whiteSpace=wrap;" vertex="1" parent="C2OVpttP7pJ9jfqpv7On-88">
          <mxGeometry width="500" height="30" relative="1" as="geometry" />
        </mxCell>
        <mxCell id="C2OVpttP7pJ9jfqpv7On-90" value="" style="shape=ellipse;strokeColor=#008cff;resizable=0;fillColor=none;html=1;" vertex="1" parent="C2OVpttP7pJ9jfqpv7On-89">
          <mxGeometry x="1" y="0.5" width="20" height="20" relative="1" as="geometry">
            <mxPoint x="-25" y="-10" as="offset" />
          </mxGeometry>
        </mxCell>
        <mxCell id="C2OVpttP7pJ9jfqpv7On-92" value="next" style="strokeWidth=1;shadow=0;dashed=0;align=center;html=1;shape=mxgraph.mockup.containers.rrect;rSize=0;fontSize=16;fontColor=#666666;strokeColor=#c4c4c4;whiteSpace=wrap;fillColor=none;" vertex="1" parent="C2OVpttP7pJ9jfqpv7On-88">
          <mxGeometry x="0.75" y="1" width="109.25" height="46" relative="1" as="geometry">
            <mxPoint x="-124" y="-54" as="offset" />
          </mxGeometry>
        </mxCell>
        <mxCell id="C2OVpttP7pJ9jfqpv7On-94" value="Line 1" style="strokeWidth=1;shadow=0;dashed=0;align=center;html=1;shape=mxgraph.mockup.text.textBox;fontColor=#666666;align=left;fontSize=17;spacingLeft=4;spacingTop=-3;whiteSpace=wrap;strokeColor=#666666;mainText=" vertex="1" parent="C2OVpttP7pJ9jfqpv7On-88">
          <mxGeometry x="139.34426229508196" y="114.8" width="245.90163934426226" height="49.2" as="geometry" />
        </mxCell>
        <mxCell id="C2OVpttP7pJ9jfqpv7On-97" value="Line 1" style="strokeWidth=1;shadow=0;dashed=0;align=center;html=1;shape=mxgraph.mockup.text.textBox;fontColor=#666666;align=left;fontSize=17;spacingLeft=4;spacingTop=-3;whiteSpace=wrap;strokeColor=#666666;mainText=" vertex="1" parent="C2OVpttP7pJ9jfqpv7On-88">
          <mxGeometry x="139.99770491803278" y="196.8" width="245.90163934426226" height="49.2" as="geometry" />
        </mxCell>
        <mxCell id="C2OVpttP7pJ9jfqpv7On-96" value="Line 1" style="strokeWidth=1;shadow=0;dashed=0;align=center;html=1;shape=mxgraph.mockup.text.textBox;fontColor=#666666;align=left;fontSize=17;spacingLeft=4;spacingTop=-3;whiteSpace=wrap;strokeColor=#666666;mainText=" vertex="1" parent="C2OVpttP7pJ9jfqpv7On-88">
          <mxGeometry x="139.99770491803278" y="50.00000000000001" width="245.90163934426226" height="49.2" as="geometry" />
        </mxCell>
        <mxCell id="C2OVpttP7pJ9jfqpv7On-95" value="Line 1" style="strokeWidth=1;shadow=0;dashed=0;align=center;html=1;shape=mxgraph.mockup.text.textBox;fontColor=#666666;align=left;fontSize=17;spacingLeft=4;spacingTop=-3;whiteSpace=wrap;strokeColor=#666666;mainText=" vertex="1" parent="C2OVpttP7pJ9jfqpv7On-88">
          <mxGeometry x="140" y="270" width="250" height="50" as="geometry" />
        </mxCell>
        <mxCell id="C2OVpttP7pJ9jfqpv7On-98" value="Some default&#xa;dialog&#xa;text." style="strokeWidth=1;shadow=0;dashed=0;align=center;html=1;shape=mxgraph.mockup.containers.rrect;rSize=0;strokeColor=#666666;fontColor=#666666;fontSize=17;verticalAlign=top;whiteSpace=wrap;fillColor=#ffffff;spacingTop=32;" vertex="1" parent="1">
          <mxGeometry x="90" y="1050" width="600" height="330" as="geometry" />
        </mxCell>
        <mxCell id="C2OVpttP7pJ9jfqpv7On-99" value="rule" style="strokeWidth=1;shadow=0;dashed=0;align=center;html=1;shape=mxgraph.mockup.containers.rrect;rSize=0;fontSize=17;fontColor=#666666;strokeColor=#666666;align=left;spacingLeft=8;fillColor=none;resizeWidth=1;whiteSpace=wrap;" vertex="1" parent="C2OVpttP7pJ9jfqpv7On-98">
          <mxGeometry width="600" height="30" relative="1" as="geometry" />
        </mxCell>
        <mxCell id="C2OVpttP7pJ9jfqpv7On-100" value="" style="shape=ellipse;strokeColor=#008cff;resizable=0;fillColor=none;html=1;" vertex="1" parent="C2OVpttP7pJ9jfqpv7On-99">
          <mxGeometry x="1" y="0.5" width="20" height="20" relative="1" as="geometry">
            <mxPoint x="-25" y="-10" as="offset" />
          </mxGeometry>
        </mxCell>
        <mxCell id="C2OVpttP7pJ9jfqpv7On-101" value="Cancel" style="strokeWidth=1;shadow=0;dashed=0;align=center;html=1;shape=mxgraph.mockup.containers.rrect;rSize=0;fontSize=16;fontColor=#666666;strokeColor=#c4c4c4;whiteSpace=wrap;fillColor=none;" vertex="1" parent="C2OVpttP7pJ9jfqpv7On-98">
          <mxGeometry x="0.25" y="1" width="90" height="25" relative="1" as="geometry">
            <mxPoint x="-45" y="-33" as="offset" />
          </mxGeometry>
        </mxCell>
        <mxCell id="C2OVpttP7pJ9jfqpv7On-102" value="next" style="strokeWidth=1;shadow=0;dashed=0;align=center;html=1;shape=mxgraph.mockup.containers.rrect;rSize=0;fontSize=16;fontColor=#666666;strokeColor=#c4c4c4;whiteSpace=wrap;fillColor=none;" vertex="1" parent="C2OVpttP7pJ9jfqpv7On-98">
          <mxGeometry x="0.75" y="1" width="90" height="25" relative="1" as="geometry">
            <mxPoint x="-45" y="-33" as="offset" />
          </mxGeometry>
        </mxCell>
        <mxCell id="C2OVpttP7pJ9jfqpv7On-103" value="Some default&#xa;dialog&#xa;text." style="strokeWidth=1;shadow=0;dashed=0;align=center;html=1;shape=mxgraph.mockup.containers.rrect;rSize=0;strokeColor=#666666;fontColor=#666666;fontSize=17;verticalAlign=top;whiteSpace=wrap;fillColor=#ffffff;spacingTop=32;" vertex="1" parent="1">
          <mxGeometry x="280" y="1850" width="310" height="310" as="geometry" />
        </mxCell>
        <mxCell id="C2OVpttP7pJ9jfqpv7On-104" value="catagory" style="strokeWidth=1;shadow=0;dashed=0;align=center;html=1;shape=mxgraph.mockup.containers.rrect;rSize=0;fontSize=17;fontColor=#666666;strokeColor=#666666;align=left;spacingLeft=8;fillColor=none;resizeWidth=1;whiteSpace=wrap;" vertex="1" parent="C2OVpttP7pJ9jfqpv7On-103">
          <mxGeometry width="310" height="30" relative="1" as="geometry" />
        </mxCell>
        <mxCell id="C2OVpttP7pJ9jfqpv7On-105" value="" style="shape=ellipse;strokeColor=#008cff;resizable=0;fillColor=none;html=1;" vertex="1" parent="C2OVpttP7pJ9jfqpv7On-104">
          <mxGeometry x="1" y="0.5" width="20" height="20" relative="1" as="geometry">
            <mxPoint x="-25" y="-10" as="offset" />
          </mxGeometry>
        </mxCell>
        <mxCell id="C2OVpttP7pJ9jfqpv7On-106" value="Cancel" style="strokeWidth=1;shadow=0;dashed=0;align=center;html=1;shape=mxgraph.mockup.containers.rrect;rSize=0;fontSize=16;fontColor=#666666;strokeColor=#c4c4c4;whiteSpace=wrap;fillColor=none;" vertex="1" parent="C2OVpttP7pJ9jfqpv7On-103">
          <mxGeometry x="0.25" y="1" width="90" height="25" relative="1" as="geometry">
            <mxPoint x="-45" y="-33" as="offset" />
          </mxGeometry>
        </mxCell>
        <mxCell id="C2OVpttP7pJ9jfqpv7On-107" value="play" style="strokeWidth=1;shadow=0;dashed=0;align=center;html=1;shape=mxgraph.mockup.containers.rrect;rSize=0;fontSize=16;fontColor=#666666;strokeColor=#c4c4c4;whiteSpace=wrap;fillColor=none;" vertex="1" parent="C2OVpttP7pJ9jfqpv7On-103">
          <mxGeometry x="0.75" y="1" width="90" height="25" relative="1" as="geometry">
            <mxPoint x="-45" y="-33" as="offset" />
          </mxGeometry>
        </mxCell>
        <mxCell id="C2OVpttP7pJ9jfqpv7On-108" value="" style="strokeWidth=1;shadow=0;dashed=0;align=center;html=1;shape=mxgraph.mockup.containers.browserWindow;rSize=0;strokeColor=#666666;strokeColor2=#008cff;strokeColor3=#c4c4c4;mainText=,;recursiveResize=0;" vertex="1" parent="1">
          <mxGeometry x="5" y="3140" width="770" height="690" as="geometry" />
        </mxCell>
        <mxCell id="C2OVpttP7pJ9jfqpv7On-109" value="home" style="strokeWidth=1;shadow=0;dashed=0;align=center;html=1;shape=mxgraph.mockup.containers.anchor;fontSize=17;fontColor=#666666;align=left;whiteSpace=wrap;" vertex="1" parent="C2OVpttP7pJ9jfqpv7On-108">
          <mxGeometry x="60" y="12" width="110" height="26" as="geometry" />
        </mxCell>
        <mxCell id="C2OVpttP7pJ9jfqpv7On-110" value="https://www.quizegame.com/quize" style="strokeWidth=1;shadow=0;dashed=0;align=center;html=1;shape=mxgraph.mockup.containers.anchor;rSize=0;fontSize=17;fontColor=#666666;align=left;" vertex="1" parent="C2OVpttP7pJ9jfqpv7On-108">
          <mxGeometry x="130" y="60" width="250" height="26" as="geometry" />
        </mxCell>
        <mxCell id="C2OVpttP7pJ9jfqpv7On-111" value="" style="strokeWidth=1;shadow=0;dashed=0;align=center;html=1;shape=mxgraph.mockup.text.rrect;rSize=0;strokeColor=#666666;" vertex="1" parent="C2OVpttP7pJ9jfqpv7On-108">
          <mxGeometry x="260" y="142.5" width="500" height="25" as="geometry" />
        </mxCell>
        <mxCell id="C2OVpttP7pJ9jfqpv7On-112" value="score" style="strokeColor=inherit;fillColor=inherit;gradientColor=inherit;strokeWidth=1;shadow=0;dashed=0;align=center;html=1;shape=mxgraph.mockup.text.rrect;rSize=0;fontSize=17;fontColor=#0000ff;whiteSpace=wrap;" vertex="1" parent="C2OVpttP7pJ9jfqpv7On-111">
          <mxGeometry x="125" width="125" height="25" as="geometry" />
        </mxCell>
        <mxCell id="C2OVpttP7pJ9jfqpv7On-113" value="login" style="strokeColor=inherit;fillColor=inherit;gradientColor=inherit;strokeWidth=1;shadow=0;dashed=0;align=center;html=1;shape=mxgraph.mockup.text.rrect;rSize=0;fontSize=17;fontColor=#0000ff;whiteSpace=wrap;" vertex="1" parent="C2OVpttP7pJ9jfqpv7On-111">
          <mxGeometry x="250" width="125" height="25" as="geometry" />
        </mxCell>
        <mxCell id="C2OVpttP7pJ9jfqpv7On-114" value="contact" style="strokeColor=inherit;fillColor=inherit;gradientColor=inherit;strokeWidth=1;shadow=0;dashed=0;align=center;html=1;shape=mxgraph.mockup.text.rrect;rSize=0;fontSize=17;fontColor=#0000ff;whiteSpace=wrap;" vertex="1" parent="C2OVpttP7pJ9jfqpv7On-111">
          <mxGeometry x="375" width="125" height="25" as="geometry" />
        </mxCell>
        <mxCell id="C2OVpttP7pJ9jfqpv7On-115" value="home" style="strokeWidth=1;shadow=0;dashed=0;align=center;html=1;shape=mxgraph.mockup.text.rrect;rSize=0;fontSize=17;fontColor=#ffffff;fillColor=#008cff;strokeColor=#008cff;whiteSpace=wrap;" vertex="1" parent="C2OVpttP7pJ9jfqpv7On-111">
          <mxGeometry width="125" height="25" as="geometry" />
        </mxCell>
        <mxCell id="C2OVpttP7pJ9jfqpv7On-116" value="" style="verticalLabelPosition=bottom;shadow=0;dashed=0;align=center;html=1;verticalAlign=top;strokeWidth=1;shape=mxgraph.mockup.graphics.simpleIcon;strokeColor=#999999;" vertex="1" parent="C2OVpttP7pJ9jfqpv7On-108">
          <mxGeometry x="40" y="130" width="90" height="50" as="geometry" />
        </mxCell>
        <mxCell id="C2OVpttP7pJ9jfqpv7On-117" value="" style="strokeWidth=1;shadow=0;dashed=0;align=center;html=1;shape=mxgraph.mockup.containers.rrect;rSize=0;strokeColor=#666666;fontColor=#666666;fontSize=17;verticalAlign=top;whiteSpace=wrap;fillColor=#ffffff;spacingTop=32;" vertex="1" parent="C2OVpttP7pJ9jfqpv7On-108">
          <mxGeometry x="120" y="230" width="500" height="410" as="geometry" />
        </mxCell>
        <mxCell id="C2OVpttP7pJ9jfqpv7On-118" value="quize" style="strokeWidth=1;shadow=0;dashed=0;align=center;html=1;shape=mxgraph.mockup.containers.rrect;rSize=0;fontSize=17;fontColor=#666666;strokeColor=#666666;align=left;spacingLeft=8;fillColor=none;resizeWidth=1;whiteSpace=wrap;" vertex="1" parent="C2OVpttP7pJ9jfqpv7On-117">
          <mxGeometry width="500" height="30" relative="1" as="geometry" />
        </mxCell>
        <mxCell id="C2OVpttP7pJ9jfqpv7On-119" value="" style="shape=ellipse;strokeColor=#008cff;resizable=0;fillColor=none;html=1;" vertex="1" parent="C2OVpttP7pJ9jfqpv7On-118">
          <mxGeometry x="1" y="0.5" width="20" height="20" relative="1" as="geometry">
            <mxPoint x="-25" y="-10" as="offset" />
          </mxGeometry>
        </mxCell>
        <mxCell id="C2OVpttP7pJ9jfqpv7On-120" value="next" style="strokeWidth=1;shadow=0;dashed=0;align=center;html=1;shape=mxgraph.mockup.containers.rrect;rSize=0;fontSize=16;fontColor=#666666;strokeColor=#c4c4c4;whiteSpace=wrap;fillColor=none;" vertex="1" parent="C2OVpttP7pJ9jfqpv7On-117">
          <mxGeometry x="0.75" y="1" width="109.25" height="46" relative="1" as="geometry">
            <mxPoint x="-124" y="-54" as="offset" />
          </mxGeometry>
        </mxCell>
        <mxCell id="C2OVpttP7pJ9jfqpv7On-121" value="Line 1" style="strokeWidth=1;shadow=0;dashed=0;align=center;html=1;shape=mxgraph.mockup.text.textBox;fontColor=#666666;align=left;fontSize=17;spacingLeft=4;spacingTop=-3;whiteSpace=wrap;strokeColor=#666666;mainText=" vertex="1" parent="C2OVpttP7pJ9jfqpv7On-117">
          <mxGeometry x="139.34426229508196" y="114.8" width="245.90163934426226" height="49.2" as="geometry" />
        </mxCell>
        <mxCell id="C2OVpttP7pJ9jfqpv7On-122" value="Line 1" style="strokeWidth=1;shadow=0;dashed=0;align=center;html=1;shape=mxgraph.mockup.text.textBox;fontColor=#666666;align=left;fontSize=17;spacingLeft=4;spacingTop=-3;whiteSpace=wrap;strokeColor=#666666;mainText=" vertex="1" parent="C2OVpttP7pJ9jfqpv7On-117">
          <mxGeometry x="139.99770491803278" y="196.8" width="245.90163934426226" height="49.2" as="geometry" />
        </mxCell>
        <mxCell id="C2OVpttP7pJ9jfqpv7On-123" value="Line 1" style="strokeWidth=1;shadow=0;dashed=0;align=center;html=1;shape=mxgraph.mockup.text.textBox;fontColor=#666666;align=left;fontSize=17;spacingLeft=4;spacingTop=-3;whiteSpace=wrap;strokeColor=#666666;mainText=" vertex="1" parent="C2OVpttP7pJ9jfqpv7On-117">
          <mxGeometry x="139.99770491803278" y="50.00000000000001" width="245.90163934426226" height="49.2" as="geometry" />
        </mxCell>
        <mxCell id="C2OVpttP7pJ9jfqpv7On-124" value="Line 1" style="strokeWidth=1;shadow=0;dashed=0;align=center;html=1;shape=mxgraph.mockup.text.textBox;fontColor=#666666;align=left;fontSize=17;spacingLeft=4;spacingTop=-3;whiteSpace=wrap;strokeColor=#666666;mainText=" vertex="1" parent="C2OVpttP7pJ9jfqpv7On-117">
          <mxGeometry x="140" y="270" width="250" height="50" as="geometry" />
        </mxCell>
      </root>
    </mxGraphModel>
  </diagram>
</mxfile>
